<?xml version="1.0" encoding="iso-8859-1"?>
<!-- Uploaded to: SVG Repo, www.svgrepo.com, Generator: SVG Repo Mixer Tools -->
<svg fill="#000000" height="800px" width="800px" version="1.1" id="Layer_1" xmlns="http://www.w3.org/2000/svg" xmlns:xlink="http://www.w3.org/1999/xlink" 
	 viewBox="0 0 512 512" xml:space="preserve">
<g>
	<g>
		<g>
			<path d="M34.247,185.385c7.166,14.354,14.824,28.68,22.481,42.331c2.681,4.779,5.173,9.137,7.414,12.992
				c1.357,2.334,2.339,3.997,2.882,4.906c8.256,13.81,28.246,13.858,36.569,0.087c0.545-0.903,1.529-2.552,2.889-4.868
				c2.244-3.822,4.738-8.144,7.422-12.888c7.664-13.548,15.328-27.79,22.501-42.094c4.526-9.024,8.716-17.801,12.505-26.249
				c13.899-30.994,21.759-55.711,21.759-74.269C170.667,38.202,132.465,0,85.333,0S0,38.202,0,85.333
				c0,18.429,8.057,43.366,22.31,74.989C25.949,168.394,29.947,176.772,34.247,185.385z M85.333,42.667
				c23.567,0,42.667,19.099,42.667,42.667c0,10.682-6.49,31.091-18.024,56.811c-3.522,7.855-7.45,16.082-11.712,24.58
				c-4.135,8.246-8.458,16.499-12.853,24.607c-4.443-8.248-8.812-16.635-12.99-25.005c-4.059-8.131-7.817-16.006-11.212-23.537
				C49.37,116.523,42.667,95.778,42.667,85.333C42.667,61.766,61.766,42.667,85.333,42.667z"/>
			<path d="M426.667,256c-47.131,0-85.333,38.202-85.333,85.333c0,18.429,8.057,43.366,22.31,74.989
				c3.638,8.072,7.636,16.45,11.936,25.063c7.167,14.354,14.824,28.68,22.481,42.331c2.681,4.779,5.173,9.137,7.414,12.992
				c1.357,2.334,2.339,3.997,2.882,4.906c8.256,13.81,28.246,13.858,36.569,0.087c0.545-0.903,1.529-2.552,2.889-4.868
				c2.244-3.822,4.738-8.145,7.422-12.888c7.664-13.548,15.328-27.79,22.501-42.094c4.526-9.024,8.716-17.801,12.505-26.249
				C504.14,384.608,512,359.891,512,341.333C512,294.202,473.798,256,426.667,256z M451.309,398.144
				c-3.522,7.855-7.45,16.082-11.712,24.58c-4.135,8.246-8.458,16.499-12.853,24.607c-4.443-8.247-8.812-16.635-12.99-25.005
				c-4.059-8.131-7.817-16.006-11.212-23.537C390.703,372.523,384,351.778,384,341.333c0-23.567,19.099-42.667,42.667-42.667
				s42.667,19.099,42.667,42.667C469.333,352.016,462.843,372.424,451.309,398.144z"/>
			<path d="M85.333,341.333H160c29.446,0,53.333-23.887,53.333-53.333c0-5.882,4.785-10.667,10.667-10.667h74.667
				c35.249,0,64-28.751,64-64c0-35.249-28.751-64-64-64h-85.333c-11.782,0-21.333,9.551-21.333,21.333
				c0,11.782,9.551,21.333,21.333,21.333h85.333c11.685,0,21.333,9.649,21.333,21.333c0,11.685-9.649,21.333-21.333,21.333H224
				c-29.446,0-53.333,23.887-53.333,53.333c0,5.882-4.785,10.667-10.667,10.667H85.333c-35.249,0-64,28.751-64,64
				c0,35.249,28.751,64,64,64h192c11.782,0,21.333-9.551,21.333-21.333c0-11.782-9.551-21.333-21.333-21.333h-192
				C73.649,384,64,374.351,64,362.667S73.649,341.333,85.333,341.333z"/>
		</g>
	</g>
</g>
</svg>